<svg version="1.1" xmlns="http://www.w3.org/2000/svg" xmlns:xlink="http://www.w3.org/1999/xlink" width="48" height="48"><defs><linearGradient x1="5.26178" y1="13.49263" x2="63.9514" y2="55.72057" gradientUnits="userSpaceOnUse" id="color-1"><stop offset="0" stop-color="#000000" stop-opacity="0.3"></stop><stop offset="1" stop-color="#000000" stop-opacity="0"></stop></linearGradient><filter id="dropshadow-base"><feColorMatrix type="matrix" values="0 0 0 0 0  0 0 0 0 0  0 0 0 0 0  0 0 0 .8 0"></feColorMatrix> <feOffset dx="0" dy="1"></feOffset> <feGaussianBlur stdDeviation="1"></feGaussianBlur> <feComposite in="SourceGraphic"></feComposite></filter><filter id="dropshadow-banner" x="-10%" y="-10%" width="120%" height="130%"><feColorMatrix type="matrix" values="0 0 0 0 0  0 0 0 0 0  0 0 0 0 0  0 0 0 .4 0"></feColorMatrix> <feOffset dx="0" dy="1"></feOffset> <feGaussianBlur stdDeviation="0.5"></feGaussianBlur> <feComposite in="SourceGraphic"></feComposite></filter></defs><g fill="none" fill-rule="nonzero" stroke="none" stroke-width="none" stroke-linecap="butt" stroke-linejoin="miter" stroke-miterlimit="10" stroke-dasharray="" stroke-dashoffset="0" font-family="none" font-weight="none" font-size="none" text-anchor="none" style="mix-blend-mode: normal"><path d="M2,24c0,-12.15026 9.84974,-22 22,-22c12.15026,0 22,9.84974 22,22c0,12.15026 -9.84974,22 -22,22c-12.15026,0 -22,-9.84974 -22,-22z" id="base 1 5" fill="#37474f" stroke-width="1"></path><path d="M11.96738,30.33928c-0.27299,-0.27299 -0.44183,-0.65013 -0.44183,-1.06672l0,-2.05526l-6.26377,-6.26377l2.30625,-0.19996l-2.30625,-2.30625l2.40603,-0.23901l-2.26518,-2.26518l6.12188,-0.70557v-0.23636c0,-0.83466 0.67881,-1.50856 1.50856,-1.50856h17.26841c0.41736,0 0.7945,0.16846 1.0673,0.44126l2.1887,2.1887h1.24454c0.52804,0 1.03594,0.21122 1.41309,0.58334l5.92867,5.86341l3.73679,3.73679c-1.03654,9.95075 -8.70602,17.92955 -18.50918,19.43716z" fill="url(#color-1)" stroke-width="1"></path><path d="M19.14791,28.24671c-1.72985,0 -3.12781,1.40292 -3.12781,3.13283c0,1.72477 1.39796,3.12781 3.12781,3.12781c1.72985,0 3.12781,-1.40304 3.12781,-3.12781c-0.00006,-1.72992 -1.39796,-3.13283 -3.12781,-3.13283zM19.14791,32.94345c-0.86496,0 -1.56397,-0.70409 -1.56397,-1.56403c0,-0.86484 0.69901,-1.5639 1.56397,-1.5639c0.8649,0 1.5639,0.69907 1.5639,1.5639c-0.00006,0.85994 -0.69901,1.56403 -1.5639,1.56403zM42.7382,25.93267v3.33987c0,0.83312 -0.67537,1.50855 -1.50861,1.50855h-1.61418c-0.29167,-2.00144 -2.01644,-3.54017 -4.09834,-3.54017c-2.07676,0 -3.80165,1.5388 -4.09332,3.54017h-8.18155c-0.29167,-2.00144 -2.0165,-3.54017 -4.09332,-3.54017c-2.07682,0 -3.80165,1.5388 -4.09326,3.54017h-2.02152c-0.83318,0 -1.50855,-0.67537 -1.50855,-1.50855v-3.33987h31.21264zM35.52112,28.24671c-1.72985,0 -3.13283,1.40292 -3.13283,3.13283c0,1.72477 1.40304,3.12781 3.13283,3.12781c1.72477,0 3.12775,-1.40304 3.12775,-3.12781c0,-1.72992 -1.40298,-3.13283 -3.12775,-3.13283zM35.52112,32.94345c-0.86496,0 -1.5639,-0.70409 -1.5639,-1.56403c0,-0.86484 0.69895,-1.5639 1.5639,-1.5639c0.85988,0 1.5639,0.69907 1.5639,1.5639c0,0.85994 -0.70403,1.56403 -1.5639,1.56403zM42.14378,22.56934l-5.92868,-5.8634c-0.37715,-0.37213 -0.88504,-0.58333 -1.41308,-0.58333h-2.99199v-1.12141c0,-0.83471 -0.67384,-1.50855 -1.50855,-1.50855h-17.26842c-0.82975,0 -1.50855,0.6739 -1.50855,1.50855v0.23637l-6.12188,0.70556l10.8477,1.41259l-10.98855,1.09159l10.94985,1.5568l-10.94985,0.9494l6.26309,1.18124l-0.00043,2.964h31.2127v-1.10133c0,-0.53808 -0.21622,-1.05093 -0.59338,-1.42808zM39.55908,22.76542h-5.73762c-0.13074,0 -0.23637,-0.10557 -0.23637,-0.23631v-4.43024c0,-0.13074 0.10563,-0.23637 0.23637,-0.23637h1.09122c0.06032,0 0.1207,0.02517 0.16595,0.0654l4.64144,4.43024c0.15578,0.1458 0.05015,0.40728 -0.16099,0.40728z" fill="none" stroke-width="0"></path><path d="M22.27572,31.37954c0,1.72477 -1.39796,3.12781 -3.12781,3.12781c-1.72985,0 -3.12781,-1.40304 -3.12781,-3.12781c0,-1.72992 1.39796,-3.13283 3.12781,-3.13283c1.72985,0 3.12775,1.40292 3.12781,3.13283zM20.71181,31.37942c0,-0.86484 -0.69901,-1.5639 -1.5639,-1.5639c-0.86496,0 -1.56397,0.69907 -1.56397,1.5639c0,0.85994 0.69901,1.56403 1.56397,1.56403c0.8649,0 1.56384,-0.70409 1.5639,-1.56403zM42.7382,29.27254c0,0.83312 -0.67537,1.50855 -1.50861,1.50855h-1.61418c-0.29167,-2.00144 -2.01644,-3.54017 -4.09834,-3.54017c-2.07676,0 -3.80165,1.5388 -4.09332,3.54017h-8.18155c-0.29167,-2.00144 -2.0165,-3.54017 -4.09332,-3.54017c-2.07682,0 -3.80165,1.5388 -4.09326,3.54017h-2.02152c-0.83318,0 -1.50855,-0.67537 -1.50855,-1.50855v-3.33987h31.21264zM38.64886,31.37954c0,1.72477 -1.40298,3.12781 -3.12775,3.12781c-1.72979,0 -3.13283,-1.40304 -3.13283,-3.12781c0,-1.72992 1.40298,-3.13283 3.13283,-3.13283c1.72477,0 3.12775,1.40292 3.12775,3.13283zM37.08502,31.37942c0,-0.86484 -0.70403,-1.5639 -1.5639,-1.5639c-0.86496,0 -1.5639,0.69907 -1.5639,1.5639c0,0.85994 0.69895,1.56403 1.5639,1.56403c0.85988,0 1.5639,-0.70409 1.5639,-1.56403zM42.73716,23.99743v1.10133h-31.2127l0.00043,-2.964l-6.26309,-1.18124l10.94985,-0.9494l-10.94985,-1.5568l10.98855,-1.09159l-10.8477,-1.41259l6.12188,-0.70556v-0.23637c0,-0.83465 0.6788,-1.50855 1.50855,-1.50855h17.26842c0.83471,0 1.50855,0.67384 1.50855,1.50855v1.12141h2.99199c0.52804,0 1.03593,0.2112 1.41308,0.58333l5.92868,5.8634c0.37715,0.37715 0.59338,0.89 0.59338,1.42808zM39.72006,22.35814l-4.64144,-4.43024c-0.04525,-0.04023 -0.10563,-0.0654 -0.16595,-0.0654h-1.09122c-0.13074,0 -0.23637,0.10563 -0.23637,0.23637v4.43024c0,0.13074 0.10563,0.23631 0.23637,0.23631h5.73762c0.21114,0 0.31677,-0.26148 0.16099,-0.40728z" fill="#ffffff" stroke-width="0"></path><path d="M2,24c0,-12.15026 9.84974,-22 22,-22c12.15026,0 22,9.84974 22,22c0,12.15026 -9.84974,22 -22,22c-12.15026,0 -22,-9.84974 -22,-22z" id="base 1 1 1" fill="none" stroke-width="1"></path><g id="Capa_1 1 1" fill="#000000" stroke-width="1" font-family="Roboto, sans-serif" font-weight="400" font-size="14" text-anchor="start"><g><g></g></g><g></g><g></g><g></g><g></g><g></g><g></g><g></g><g></g><g></g><g></g><g></g><g></g><g></g><g></g><g></g></g><rect x="2" y="2" width="44" height="22" fill="none" stroke-width="1"></rect><path d="M2,24v-22h44v22z" fill="none" stroke-width="1"></path><path d="M2,24v-22h44v22z" fill="none" stroke-width="1"></path><path d="M2,24v-22h44v22z" fill="none" stroke-width="1"></path><path d="M2,24v-22h44v22z" fill="none" stroke-width="1"></path></g></svg>